<?xml version="1.0" encoding="UTF-8" standalone="no"?>
<!-- Generator: Adobe Illustrator 22.0.0, SVG Export Plug-In . SVG Version: 6.00 Build 0)  -->

<svg
   xmlns:dc="http://purl.org/dc/elements/1.1/"
   xmlns:cc="http://creativecommons.org/ns#"
   xmlns:rdf="http://www.w3.org/1999/02/22-rdf-syntax-ns#"
   xmlns:svg="http://www.w3.org/2000/svg"
   xmlns="http://www.w3.org/2000/svg"
   xmlns:sodipodi="http://sodipodi.sourceforge.net/DTD/sodipodi-0.dtd"
   xmlns:inkscape="http://www.inkscape.org/namespaces/inkscape"
   version="1.1"
   id="Capa_1"
   x="0px"
   y="0px"
   viewBox="0 0 699.99998 700"
   xml:space="preserve"
   sodipodi:docname="auf-seleccion-de-futbol-de-uruguay-logo.svg"
   width="700"
   height="700"
   inkscape:version="0.92.4 (5da689c313, 2019-01-14)"
   inkscape:export-filename="C:\Users\suitedoalex\auf-seleccion-de-futbol-de-uruguay-logo-0.png"
   inkscape:export-xdpi="561.73712"
   inkscape:export-ydpi="561.73712"><metadata
   id="metadata89"><rdf:RDF><cc:Work
       rdf:about=""><dc:format>image/svg+xml</dc:format><dc:type
         rdf:resource="http://purl.org/dc/dcmitype/StillImage" /><dc:title></dc:title></cc:Work></rdf:RDF></metadata><defs
   id="defs87"><clipPath
     id="Clip0"><path
       inkscape:connector-curvature="0"
       d="M 0,0 H 221.381 V 270 H 0 Z"
       transform="translate(6,2)"
       id="path2" /></clipPath><clipPath
     id="Clip1"><path
       inkscape:connector-curvature="0"
       d="M 0,0 H 221.381 V 221.35 H 0 Z"
       transform="translate(6,50.6496)"
       id="path5" /></clipPath><clipPath
     id="Clip2"><path
       inkscape:connector-curvature="0"
       d="M 0,0 H 168.883 V 168.926 H 0 Z"
       transform="translate(32.3104,76.9269)"
       id="path8" /></clipPath><clipPath
     id="Clip3"><path
       inkscape:connector-curvature="0"
       d="M 0,0 H 141.609 V 155.997 H 0 Z"
       transform="translate(45.4691,83.6182)"
       id="path11" /></clipPath><clipPath
     id="Clip4"><path
       inkscape:connector-curvature="0"
       d="M 0,0 H 213.372 V 41.8914 H 0 Z"
       transform="translate(10.3685,2)"
       id="path14-1" /></clipPath></defs><sodipodi:namedview
   pagecolor="#ffffff"
   bordercolor="#666666"
   borderopacity="1"
   objecttolerance="10"
   gridtolerance="10"
   guidetolerance="10"
   inkscape:pageopacity="0"
   inkscape:pageshadow="2"
   inkscape:window-width="1600"
   inkscape:window-height="837"
   id="namedview85"
   showgrid="false"
   inkscape:zoom="0.48659794"
   inkscape:cx="497.28955"
   inkscape:cy="-324.8536"
   inkscape:window-x="-8"
   inkscape:window-y="-8"
   inkscape:window-maximized="1"
   inkscape:current-layer="Capa_1" />
<style
   type="text/css"
   id="style2">
	.st0{fill:#EBBC03;}
	.st1{fill:#D51C27;}
	.st2{fill:#FFFFFF;}
	.st3{fill:#43B5E5;}
	.st4{fill:#293634;}
</style>
<polyline
   class="st0"
   points="184.4,485 120.1,461.2 57.2,485 57.2,78.1 119.8,101.8 184.4,78.1 184.4,485 "
   id="polyline4"
   transform="translate(229.2,769.90224)"
   style="fill:#ebbc03"
   inkscape:export-filename="C:\Users\suitedoalex\auf-seleccion-de-futbol-de-uruguay-logo-4.png"
   inkscape:export-xdpi="278.14569"
   inkscape:export-ydpi="278.14569" />
<polyline
   class="st0"
   points="23.6,0 18.1,17.2 0,17.2 14.7,27.7 9,44.9 23.7,34.3 38.3,44.9 32.7,27.7 47.3,17.1 29.3,17.1 23.6,0   "
   id="polyline6"
   transform="translate(229.2,769.90224)"
   style="fill:#ebbc03"
   inkscape:export-filename="C:\Users\suitedoalex\auf-seleccion-de-futbol-de-uruguay-logo-4.png"
   inkscape:export-xdpi="278.14569"
   inkscape:export-ydpi="278.14569" />
<polyline
   class="st0"
   points="88.1,0 82.6,17.2 64.5,17.2 79.2,27.7 73.5,44.9 88.2,34.3 102.8,44.9 97.2,27.7 111.8,17.1   93.8,17.1 88.1,0 "
   id="polyline8"
   transform="translate(229.2,769.90224)"
   style="fill:#ebbc03"
   inkscape:export-filename="C:\Users\suitedoalex\auf-seleccion-de-futbol-de-uruguay-logo-4.png"
   inkscape:export-xdpi="278.14569"
   inkscape:export-ydpi="278.14569" />
<polyline
   class="st0"
   points="152.9,0 147.4,17.2 129.3,17.2 144,27.7 138.3,44.9 153.1,34.3 167.6,44.9 162.1,27.7 176.6,17.1   158.6,17.1 152.9,0 "
   id="polyline10"
   transform="translate(229.2,769.90224)"
   style="fill:#ebbc03"
   inkscape:export-filename="C:\Users\suitedoalex\auf-seleccion-de-futbol-de-uruguay-logo-4.png"
   inkscape:export-xdpi="278.14569"
   inkscape:export-ydpi="278.14569" />
<polyline
   class="st0"
   points="217.9,0 212.4,17.2 194.3,17.2 209,27.7 203.3,44.9 218,34.3 232.6,44.9 227.1,27.7 241.6,17.1   223.6,17.1 217.9,0 "
   id="polyline12"
   transform="translate(229.2,769.90224)"
   style="fill:#ebbc03"
   inkscape:export-filename="C:\Users\suitedoalex\auf-seleccion-de-futbol-de-uruguay-logo-4.png"
   inkscape:export-xdpi="278.14569"
   inkscape:export-ydpi="278.14569" />
<path
   class="st1"
   d="m 371.4,945.10224 h 18.2 l -26.7,-46.7 h -25.7 l -26.8,46.7 h 18.3 c 0,0 1.2,-4 2.9,-8.4 h 36.9 c 1.7,4.5 2.9,8.4 2.9,8.4 m -21.5,-39.7 0.2,-0.3 0.1,0.3 c 0,0 9,13.1 13.5,20.8 h -27.3 c 4.5,-7.7 13.5,-20.8 13.5,-20.8 z"
   id="path14"
   inkscape:connector-curvature="0"
   style="fill:#d51c27"
   inkscape:export-filename="C:\Users\suitedoalex\auf-seleccion-de-futbol-de-uruguay-logo-4.png"
   inkscape:export-xdpi="278.14569"
   inkscape:export-ydpi="278.14569" />
<path
   class="st1"
   d="m 370.2,964.30224 v 36.10006 h -40.4 v -36.10006 h -18.9 c 0,0 0,30.40003 0,33.10003 0,5.80003 9.9,13.50003 17.8,13.50003 h 14 c 7.7,0 14.7,0 14.7,0 h 14 c 7.9,0 17.8,-7.6 17.8,-13.50003 0,-2.7 0,-33.10003 0,-33.10003 h -19"
   id="path16"
   inkscape:connector-curvature="0"
   style="fill:#d51c27"
   inkscape:export-filename="C:\Users\suitedoalex\auf-seleccion-de-futbol-de-uruguay-logo-4.png"
   inkscape:export-xdpi="278.14569"
   inkscape:export-ydpi="278.14569" />
<polyline
   class="st1"
   points="159.1,270.3 159.1,259.8 82.5,259.8 82.5,307 101.4,307 101.4,289.9 159.1,289.9 159.1,279.4   101.4,279.4 101.4,270.3 159.1,270.3 "
   id="polyline18"
   transform="translate(229.2,769.90224)"
   style="fill:#d51c27"
   inkscape:export-filename="C:\Users\suitedoalex\auf-seleccion-de-futbol-de-uruguay-logo-4.png"
   inkscape:export-xdpi="278.14569"
   inkscape:export-ydpi="278.14569" />
<path
   class="st0"
   d="m 252.2,921.90224 c 0,0 7,-2.5 7,-10 0,-7.5 -6.9,-13.9 -6.9,-13.9 h -0.1 c 0,0 -6.9,6.5 -6.9,13.9 0,7.5 7,10 7,10 h -0.1"
   id="path20"
   inkscape:connector-curvature="0"
   style="fill:#ebbc03"
   inkscape:export-filename="C:\Users\suitedoalex\auf-seleccion-de-futbol-de-uruguay-logo-4.png"
   inkscape:export-xdpi="278.14569"
   inkscape:export-ydpi="278.14569" />
<path
   class="st0"
   d="m 255,948.00224 c 0,0 6.5,3.7 12.2,-1.2 5.7,-4.9 6.1,-14.3 6.1,-14.3 l -0.1,-0.1 c 0,0 -9.4,-1.1 -15.1,3.8 -5.6,4.9 -3,11.9 -3.1,11.8 v 0"
   id="path22"
   inkscape:connector-curvature="0"
   style="fill:#ebbc03"
   inkscape:export-filename="C:\Users\suitedoalex\auf-seleccion-de-futbol-de-uruguay-logo-4.png"
   inkscape:export-xdpi="278.14569"
   inkscape:export-ydpi="278.14569" />
<path
   class="st0"
   d="m 249.9,947.60224 c 0,0 -6.4,3.9 -12.2,-0.7 -5.9,-4.7 -6.6,-14.1 -6.6,-14.1 l 0.1,-0.1 c 0,0 9.4,-1.4 15.2,3.3 5.9,4.7 3.5,11.7 3.5,11.6 v 0"
   id="path24"
   inkscape:connector-curvature="0"
   style="fill:#ebbc03"
   inkscape:export-filename="C:\Users\suitedoalex\auf-seleccion-de-futbol-de-uruguay-logo-4.png"
   inkscape:export-xdpi="278.14569"
   inkscape:export-ydpi="278.14569" />
<path
   class="st0"
   d="m 254.9,978.80227 c 0,0 6.5,3.7 12.2,-1.2 5.7,-4.90003 6.1,-14.30003 6.1,-14.30003 l -0.1,-0.1 c 0,0 -9.4,-1.1 -15.1,3.8 -5.7,4.9 -3,11.90003 -3.1,11.80003 v 0"
   id="path26"
   inkscape:connector-curvature="0"
   style="fill:#ebbc03"
   inkscape:export-filename="C:\Users\suitedoalex\auf-seleccion-de-futbol-de-uruguay-logo-4.png"
   inkscape:export-xdpi="278.14569"
   inkscape:export-ydpi="278.14569" />
<path
   class="st0"
   d="m 249.8,978.50227 c 0,0 -6.4,3.9 -12.2,-0.7 -5.9,-4.70003 -6.6,-14.10003 -6.6,-14.10003 l 0.1,-0.1 c 0,0 9.4,-1.4 15.2,3.3 5.8,4.6 3.4,11.70003 3.5,11.60003 v 0"
   id="path28"
   inkscape:connector-curvature="0"
   style="fill:#ebbc03"
   inkscape:export-filename="C:\Users\suitedoalex\auf-seleccion-de-futbol-de-uruguay-logo-4.png"
   inkscape:export-xdpi="278.14569"
   inkscape:export-ydpi="278.14569" />
<path
   class="st0"
   d="m 254.9,1009.6023 c 0,0 6.5,3.7 12.2,-1.2 5.7,-4.9 6.1,-14.30003 6.1,-14.30003 l -0.1,-0.1 c 0,0 -9.4,-1.1 -15.1,3.8 -5.7,4.90003 -3,11.90003 -3.1,11.80003 v 0"
   id="path30"
   inkscape:connector-curvature="0"
   style="fill:#ebbc03"
   inkscape:export-filename="C:\Users\suitedoalex\auf-seleccion-de-futbol-de-uruguay-logo-4.png"
   inkscape:export-xdpi="278.14569"
   inkscape:export-ydpi="278.14569" />
<path
   class="st0"
   d="m 249.8,1009.3023 c 0,0 -6.4,3.9 -12.2,-0.7 -5.9,-4.7 -6.6,-14.10003 -6.6,-14.10003 l 0.1,-0.1 c 0,0 9.4,-1.4 15.2,3.3 5.8,4.60003 3.4,11.70003 3.5,11.60003 v 0"
   id="path32"
   inkscape:connector-curvature="0"
   style="fill:#ebbc03"
   inkscape:export-filename="C:\Users\suitedoalex\auf-seleccion-de-futbol-de-uruguay-logo-4.png"
   inkscape:export-xdpi="278.14569"
   inkscape:export-ydpi="278.14569" />
<path
   class="st0"
   d="m 254.9,1040.4023 c 0,0 6.5,3.7 12.2,-1.2 5.7,-4.9 6.1,-14.3 6.1,-14.3 l -0.1,-0.1 c 0,0 -9.4,-1.1 -15.1,3.8 -5.7,4.9 -3,11.9 -3.1,11.8 v 0"
   id="path34"
   inkscape:connector-curvature="0"
   style="fill:#ebbc03"
   inkscape:export-filename="C:\Users\suitedoalex\auf-seleccion-de-futbol-de-uruguay-logo-4.png"
   inkscape:export-xdpi="278.14569"
   inkscape:export-ydpi="278.14569" />
<path
   class="st0"
   d="m 249.8,1040.1023 c 0,0 -6.4,3.9 -12.2,-0.7 -5.9,-4.7 -6.6,-14.1 -6.6,-14.1 l 0.1,-0.1 c 0,0 9.4,-1.4 15.2,3.3 5.8,4.6 3.4,11.7 3.5,11.6 v 0"
   id="path36"
   inkscape:connector-curvature="0"
   style="fill:#ebbc03"
   inkscape:export-filename="C:\Users\suitedoalex\auf-seleccion-de-futbol-de-uruguay-logo-4.png"
   inkscape:export-xdpi="278.14569"
   inkscape:export-ydpi="278.14569" />
<path
   class="st0"
   d="m 254.9,1071.3023 c 0,0 6.5,3.7 12.2,-1.2 5.7,-4.9 6.1,-14.3 6.1,-14.3 l -0.1,-0.1 c 0,0 -9.4,-1.1 -15.1,3.8 -5.7,4.9 -3,11.9 -3.1,11.8 v 0"
   id="path38"
   inkscape:connector-curvature="0"
   style="fill:#ebbc03"
   inkscape:export-filename="C:\Users\suitedoalex\auf-seleccion-de-futbol-de-uruguay-logo-4.png"
   inkscape:export-xdpi="278.14569"
   inkscape:export-ydpi="278.14569" />
<path
   class="st0"
   d="m 249.8,1071.0023 c 0,0 -6.4,3.9 -12.2,-0.7 -5.9,-4.7 -6.6,-14.1 -6.6,-14.1 l 0.1,-0.1 c 0,0 9.4,-1.4 15.2,3.3 5.8,4.6 3.4,11.7 3.5,11.6 v 0"
   id="path40"
   inkscape:connector-curvature="0"
   style="fill:#ebbc03"
   inkscape:export-filename="C:\Users\suitedoalex\auf-seleccion-de-futbol-de-uruguay-logo-4.png"
   inkscape:export-xdpi="278.14569"
   inkscape:export-ydpi="278.14569" />
<rect
   x="250.90001"
   y="919.50226"
   class="st0"
   width="2.5999999"
   height="190.2"
   id="rect42"
   style="fill:#ebbc03"
   inkscape:export-filename="C:\Users\suitedoalex\auf-seleccion-de-futbol-de-uruguay-logo-4.png"
   inkscape:export-xdpi="278.14569"
   inkscape:export-ydpi="278.14569" />
<path
   class="st0"
   d="m 447.9,921.90224 c 0,0 7,-2.5 7,-10 0,-7.5 -6.9,-13.9 -6.9,-13.9 h -0.1 c 0,0 -6.9,6.5 -6.9,13.9 0,7.5 7,10 7,10 h -0.1"
   id="path44"
   inkscape:connector-curvature="0"
   style="fill:#ebbc03"
   inkscape:export-filename="C:\Users\suitedoalex\auf-seleccion-de-futbol-de-uruguay-logo-4.png"
   inkscape:export-xdpi="278.14569"
   inkscape:export-ydpi="278.14569" />
<path
   class="st0"
   d="m 450.8,948.00224 c 0,0 6.5,3.7 12.2,-1.2 5.7,-4.9 6.1,-14.3 6.1,-14.3 l -0.1,-0.1 c 0,0 -9.4,-1.1 -15.1,3.8 -5.7,4.9 -3.1,11.9 -3.1,11.8 v 0"
   id="path46"
   inkscape:connector-curvature="0"
   style="fill:#ebbc03"
   inkscape:export-filename="C:\Users\suitedoalex\auf-seleccion-de-futbol-de-uruguay-logo-4.png"
   inkscape:export-xdpi="278.14569"
   inkscape:export-ydpi="278.14569" />
<path
   class="st0"
   d="m 445.7,947.60224 c 0,0 -6.4,3.9 -12.2,-0.7 -5.9,-4.7 -6.6,-14.1 -6.6,-14.1 l 0.1,-0.1 c 0,0 9.4,-1.4 15.2,3.3 5.8,4.7 3.4,11.7 3.5,11.6 v 0"
   id="path48"
   inkscape:connector-curvature="0"
   style="fill:#ebbc03"
   inkscape:export-filename="C:\Users\suitedoalex\auf-seleccion-de-futbol-de-uruguay-logo-4.png"
   inkscape:export-xdpi="278.14569"
   inkscape:export-ydpi="278.14569" />
<path
   class="st0"
   d="m 450.6,978.80227 c 0,0 6.5,3.7 12.2,-1.2 5.7,-4.90003 6.1,-14.30003 6.1,-14.30003 l -0.1,-0.1 c 0,0 -9.4,-1.1 -15.1,3.8 -5.6,4.9 -3,11.90003 -3.1,11.80003 v 0"
   id="path50"
   inkscape:connector-curvature="0"
   style="fill:#ebbc03"
   inkscape:export-filename="C:\Users\suitedoalex\auf-seleccion-de-futbol-de-uruguay-logo-4.png"
   inkscape:export-xdpi="278.14569"
   inkscape:export-ydpi="278.14569" />
<path
   class="st0"
   d="m 445.5,978.50227 c 0,0 -6.4,3.9 -12.2,-0.7 -5.9,-4.70003 -6.6,-14.10003 -6.6,-14.10003 l 0.1,-0.1 c 0,0 9.4,-1.4 15.2,3.3 5.8,4.6 3.4,11.70003 3.5,11.60003 v 0"
   id="path52"
   inkscape:connector-curvature="0"
   style="fill:#ebbc03"
   inkscape:export-filename="C:\Users\suitedoalex\auf-seleccion-de-futbol-de-uruguay-logo-4.png"
   inkscape:export-xdpi="278.14569"
   inkscape:export-ydpi="278.14569" />
<path
   class="st0"
   d="m 450.6,1009.6023 c 0,0 6.5,3.7 12.2,-1.2 5.7,-4.9 6.1,-14.30003 6.1,-14.30003 l -0.1,-0.1 c 0,0 -9.4,-1.1 -15.1,3.8 -5.6,4.90003 -3,11.90003 -3.1,11.80003 v 0"
   id="path54"
   inkscape:connector-curvature="0"
   style="fill:#ebbc03"
   inkscape:export-filename="C:\Users\suitedoalex\auf-seleccion-de-futbol-de-uruguay-logo-4.png"
   inkscape:export-xdpi="278.14569"
   inkscape:export-ydpi="278.14569" />
<path
   class="st0"
   d="m 445.5,1009.3023 c 0,0 -6.4,3.9 -12.2,-0.7 -5.9,-4.7 -6.6,-14.10003 -6.6,-14.10003 l 0.1,-0.1 c 0,0 9.4,-1.4 15.2,3.3 5.8,4.60003 3.4,11.70003 3.5,11.60003 v 0"
   id="path56"
   inkscape:connector-curvature="0"
   style="fill:#ebbc03"
   inkscape:export-filename="C:\Users\suitedoalex\auf-seleccion-de-futbol-de-uruguay-logo-4.png"
   inkscape:export-xdpi="278.14569"
   inkscape:export-ydpi="278.14569" />
<path
   class="st0"
   d="m 450.6,1040.4023 c 0,0 6.5,3.7 12.2,-1.2 5.7,-4.9 6.1,-14.3 6.1,-14.3 l -0.1,-0.1 c 0,0 -9.4,-1.1 -15.1,3.8 -5.6,4.9 -3,11.9 -3.1,11.8 v 0"
   id="path58"
   inkscape:connector-curvature="0"
   style="fill:#ebbc03"
   inkscape:export-filename="C:\Users\suitedoalex\auf-seleccion-de-futbol-de-uruguay-logo-4.png"
   inkscape:export-xdpi="278.14569"
   inkscape:export-ydpi="278.14569" />
<path
   class="st0"
   d="m 445.5,1040.1023 c 0,0 -6.4,3.9 -12.2,-0.7 -5.9,-4.7 -6.6,-14.1 -6.6,-14.1 l 0.1,-0.1 c 0,0 9.4,-1.4 15.2,3.3 5.8,4.6 3.4,11.7 3.5,11.6 v 0"
   id="path60"
   inkscape:connector-curvature="0"
   style="fill:#ebbc03"
   inkscape:export-filename="C:\Users\suitedoalex\auf-seleccion-de-futbol-de-uruguay-logo-4.png"
   inkscape:export-xdpi="278.14569"
   inkscape:export-ydpi="278.14569" />
<path
   class="st0"
   d="m 450.6,1071.3023 c 0,0 6.5,3.7 12.2,-1.2 5.7,-4.9 6.1,-14.3 6.1,-14.3 l -0.1,-0.1 c 0,0 -9.4,-1.1 -15.1,3.8 -5.6,4.9 -3,11.9 -3.1,11.8 v 0"
   id="path62"
   inkscape:connector-curvature="0"
   style="fill:#ebbc03"
   inkscape:export-filename="C:\Users\suitedoalex\auf-seleccion-de-futbol-de-uruguay-logo-4.png"
   inkscape:export-xdpi="278.14569"
   inkscape:export-ydpi="278.14569" />
<path
   class="st0"
   d="m 445.5,1071.0023 c 0,0 -6.4,3.9 -12.2,-0.7 -5.9,-4.7 -6.6,-14.1 -6.6,-14.1 l 0.1,-0.1 c 0,0 9.4,-1.4 15.2,3.3 5.8,4.6 3.4,11.7 3.5,11.6 v 0"
   id="path64"
   inkscape:connector-curvature="0"
   style="fill:#ebbc03"
   inkscape:export-filename="C:\Users\suitedoalex\auf-seleccion-de-futbol-de-uruguay-logo-4.png"
   inkscape:export-xdpi="278.14569"
   inkscape:export-ydpi="278.14569" />
<rect
   x="446.60001"
   y="919.50226"
   class="st0"
   width="2.5999999"
   height="190.2"
   id="rect66"
   style="fill:#ebbc03"
   inkscape:export-filename="C:\Users\suitedoalex\auf-seleccion-de-futbol-de-uruguay-logo-4.png"
   inkscape:export-xdpi="278.14569"
   inkscape:export-ydpi="278.14569" />
<rect
   x="231.00002"
   y="1110.8021"
   class="st2"
   width="238.10001"
   height="86.800003"
   id="rect68"
   style="fill:#ffffff"
   inkscape:export-filename="C:\Users\suitedoalex\auf-seleccion-de-futbol-de-uruguay-logo-4.png"
   inkscape:export-xdpi="278.14569"
   inkscape:export-ydpi="278.14569" />
<rect
   x="231.00002"
   y="1120.5022"
   class="st3"
   width="238.10001"
   height="9.5"
   id="rect70"
   style="fill:#43b5e5"
   inkscape:export-filename="C:\Users\suitedoalex\auf-seleccion-de-futbol-de-uruguay-logo-4.png"
   inkscape:export-xdpi="278.14569"
   inkscape:export-ydpi="278.14569" />
<rect
   x="231.00002"
   y="1139.9022"
   class="st3"
   width="238.10001"
   height="9.5"
   id="rect72"
   style="fill:#43b5e5"
   inkscape:export-filename="C:\Users\suitedoalex\auf-seleccion-de-futbol-de-uruguay-logo-4.png"
   inkscape:export-xdpi="278.14569"
   inkscape:export-ydpi="278.14569" />
<rect
   x="231.00002"
   y="1159.3021"
   class="st3"
   width="238.10001"
   height="9.5"
   id="rect74"
   style="fill:#43b5e5"
   inkscape:export-filename="C:\Users\suitedoalex\auf-seleccion-de-futbol-de-uruguay-logo-4.png"
   inkscape:export-xdpi="278.14569"
   inkscape:export-ydpi="278.14569" />
<rect
   x="231.00002"
   y="1178.6022"
   class="st3"
   width="238.10001"
   height="9.5"
   id="rect76"
   style="fill:#43b5e5"
   inkscape:export-filename="C:\Users\suitedoalex\auf-seleccion-de-futbol-de-uruguay-logo-4.png"
   inkscape:export-xdpi="278.14569"
   inkscape:export-ydpi="278.14569" />
<path
   class="st2"
   d="m 295,1154.6023 h 0.5 -0.5 c 0,-30.1 24.4,-54.4 54.5,-54.5 30.1,0.1 54.4,24.4 54.5,54.5 0,30.1 -24.4,54.4 -54.5,54.5 -30.1,-0.1 -54.5,-24.4 -54.5,-54.5"
   id="path78"
   inkscape:connector-curvature="0"
   style="fill:#ffffff"
   inkscape:export-filename="C:\Users\suitedoalex\auf-seleccion-de-futbol-de-uruguay-logo-4.png"
   inkscape:export-xdpi="278.14569"
   inkscape:export-ydpi="278.14569" />
<path
   class="st4"
   d="m 349.5,1211.6023 v 0 c -30.6,-0.1 -55.6,-24.3 -57,-54.5 h -0.1 v -2.5 -2.6 h 0.1 c 1.4,-30.2 26.4,-54.4 57,-54.5 31.4,0 57,25.6 57,57 -0.1,31.5 -25.6,57.1 -57,57.1 m -52,-57 c 0,28.6 23.3,51.9 51.9,51.9 28.6,-0.1 51.9,-23.3 51.9,-51.9 0,-28.6 -23.3,-51.9 -51.9,-51.9 -28.5,0 -51.8,23.3 -51.9,51.9 z"
   id="path80"
   inkscape:connector-curvature="0"
   style="fill:#293634"
   inkscape:export-filename="C:\Users\suitedoalex\auf-seleccion-de-futbol-de-uruguay-logo-4.png"
   inkscape:export-xdpi="278.14569"
   inkscape:export-ydpi="278.14569" />
<path
   class="st4"
   d="m 349.5,1100.1023 c -30.1,0 -54.5,24.4 -54.5,54.5 0,30.1 24.4,54.5 54.5,54.5 30.1,0 54.5,-24.4 54.5,-54.5 -0.1,-30.1 -24.5,-54.5 -54.5,-54.5 m 10.7,96.1 -16,-12.3 1.9,-12.2 20.1,-10.1 13.1,6.5 -1.9,19 c -4.9,4.3 -10.8,7.5 -17.2,9.1 z m -48.9,-20.8 1.4,-16.3 14.9,-3 16.6,15.6 -1.9,12.2 -18.2,5.8 c -5.2,-3.8 -9.6,-8.6 -12.8,-14.3 z m 37.9,-64.4 c 7.2,0 14,1.8 20,4.9 l 4.7,12.3 -10.6,8.9 -23.6,-3.7 -5.2,-10.3 9.7,-11.8 c 1.6,-0.2 3.3,-0.3 5,-0.3 z m 43.2,46.5 -11.9,9.2 -13.2,-6.6 -2.9,-21.5 10.6,-8.8 15.3,10.3 c 1.5,4.4 2.4,9.2 2.4,14.2 -0.2,1.1 -0.2,2.2 -0.3,3.2 z m -80,-0.2 -6.1,-9.3 c 1,-6.6 3.4,-12.6 7,-17.9 l 19.7,-5.9 4.7,9.4 -10.6,20.7 z m -0.6,-28.4 c -3.6,5.2 -6,11.2 -7.2,17.6 l -7.4,1.4 c 1.3,-10.1 5.4,-19.3 11.6,-26.8 z m 82.5,28.6 c 0.1,-1.1 0.1,-2.1 0.1,-3.2 0,-4.8 -0.8,-9.4 -2.1,-13.7 l 6.7,-3.7 c 2,5.5 3.1,11.5 3.1,17.7 0,3.5 -0.4,6.9 -1,10.2 z m -18.5,-48.4 -6.7,4.7 c -6,-3 -12.8,-4.6 -19.9,-4.6 -1.6,0 -3.2,0.1 -4.8,0.2 l -6.4,-6.1 c 3.7,-0.8 7.5,-1.3 11.5,-1.3 9.6,0 18.6,2.6 26.3,7.1 z m -72.9,70 7.9,-1 c 3,4.9 7,9.2 11.6,12.6 l 0.3,9.2 c -8.4,-5 -15.3,-12.2 -19.8,-20.8 z m 54.4,27.5 3.7,-8.7 c 6.4,-1.7 12.2,-4.9 17.2,-9 l 8.8,2.4 c -7.7,8 -18.1,13.6 -29.7,15.3 z"
   id="path82"
   inkscape:connector-curvature="0"
   style="fill:#293634"
   inkscape:export-filename="C:\Users\suitedoalex\auf-seleccion-de-futbol-de-uruguay-logo-4.png"
   inkscape:export-xdpi="278.14569"
   inkscape:export-ydpi="278.14569" />
<path
   style="opacity:1;fill:#ffffff;fill-opacity:1;fill-rule:nonzero;stroke:none;stroke-width:0.54621571;stroke-miterlimit:4;stroke-dasharray:none;stroke-opacity:1"
   d="m 183.67865,455.54634 c -0.475,-96.11693 0.37283,-211.87863 -1.21977,-295.31243 118.45066,0.71528 209.71516,-0.0443 333.71182,0.78996 -1.10335,104.42251 -0.34978,183.79036 -1.65878,296.97273 C 499.87663,518.65599 410.59191,593.42541 350.1969,614.13576 245.76463,591.16812 189.48166,474.76738 183.67865,455.54634 Z"
   id="path4497"
   inkscape:connector-curvature="0"
   sodipodi:nodetypes="cccccc"
   inkscape:export-filename="C:\Users\suitedoalex\auf-seleccion-de-futbol-de-uruguay-logo-5.png"
   inkscape:export-xdpi="196.79346"
   inkscape:export-ydpi="196.79346" /><g
   id="g4769"
   transform="matrix(0.68128386,0,0,0.61119348,-361.87635,417.38298)"
   style="fill:#ebbc03;fill-opacity:1"
   inkscape:export-filename="C:\Users\suitedoalex\auf-seleccion-de-futbol-de-uruguay-logo-5.png"
   inkscape:export-xdpi="196.79346"
   inkscape:export-ydpi="196.79346"><path
     style="fill:#ebbc03;fill-opacity:1;stroke-width:3.980515"
     d="M 1043.4243,330.43345 C 895.68018,255.51819 824.79115,190.13956 795.57128,62.401446 793.00514,-96.192936 795.04302,-267.81521 795.356,-426.44262 h 500.1594 c -0.8108,164.15519 -1.6214,328.310391 -2.4321,492.465586 C 1270.438,186.06675 1167.6436,272.0325 1043.4243,330.43345 Z m 234.713,-265.106781 c 1.1066,-158.418441 5.4626,-338.595229 5.5051,-479.406139 l -479.11472,-0.6885 c 0.73985,157.28678 0.43372,183.45626 2.55055,477.109448 C 838.25884,186.96777 930.77937,262.84055 1043.3438,314.98459 1152.7906,261.89628 1255.379,182.2338 1278.1373,65.326669 Z"
     id="path4771"
     inkscape:connector-curvature="0"
     sodipodi:nodetypes="cccccccccccc" /></g><g
   transform="matrix(1.5639578,0,0,1.5639578,170.60309,77.530197)"
   id="Background"
   style="fill:#ebbc03;fill-opacity:1"
   inkscape:export-filename="C:\Users\suitedoalex\auf-seleccion-de-futbol-de-uruguay-logo-5.png"
   inkscape:export-xdpi="196.79346"
   inkscape:export-ydpi="196.79346"><g
     id="svg2"
     clip-path="url(#Clip0)"
     style="fill:#ebbc03;fill-opacity:1"><g
       id="Group55"
       clip-path="url(#Clip1)"
       style="fill:#ebbc03;fill-opacity:1"><g
         id="Group54"
         clip-path="url(#Clip2)"
         style="fill:#ebbc03;fill-opacity:1"><g
           id="Group53"
           clip-path="url(#Clip3)"
           style="fill:#ebbc03;fill-opacity:1" /></g></g><g
       id="_761874112"
       clip-path="url(#Clip4)"
       style="fill:#ebbc03;fill-opacity:1"><path
         inkscape:connector-curvature="0"
         style="fill:#ebbc03;fill-opacity:1;fill-rule:nonzero;stroke:#ffc905;stroke-width:0.79654098;stroke-linecap:butt;stroke-linejoin:round;stroke-dasharray:none"
         id=" polygon325"
         d="m 43.1522,15.7164 v 0 l -13.4304,9.691 5.14,15.6876 L 21.5109,31.3107 8.15026,40.9371 13.3563,25.313 0,15.6646 16.5001,15.7641 21.5758,0 26.6466,15.7522 Z"
         transform="translate(180.19,2.39827)" /><path
         inkscape:connector-curvature="0"
         style="fill:#ebbc03;fill-opacity:1;fill-rule:nonzero;stroke:#ffc905;stroke-width:0.79654098;stroke-linecap:butt;stroke-linejoin:round;stroke-dasharray:none"
         id=" polygon329"
         d="m 34.8237,40.9962 v 0 L 21.5301,31.2978 8.22917,40.9905 13.2933,25.3491 0,15.651 16.512,15.6408 21.5755,0 l 5.0184,15.657 16.521,0.0846 -13.4054,9.6065 z"
         transform="translate(124.709,2.43374)" /><path
         inkscape:connector-curvature="0"
         style="fill:#ebbc03;fill-opacity:1;fill-rule:nonzero;stroke:#ffc905;stroke-width:0.79654098;stroke-linecap:butt;stroke-linejoin:round;stroke-dasharray:none"
         id=" polygon333"
         d="M 21.5573,31.2978 8.24774,40.9736 v 0 L 13.3881,25.3345 0,15.7051 16.5206,15.6484 21.5659,0 l 5.0363,15.6497 16.5119,0.0385 -13.3094,9.6755 5.1321,15.6586 z"
         transform="translate(66.1339,2.43441)" /><path
         inkscape:connector-curvature="0"
         style="fill:#ebbc03;fill-opacity:1;fill-rule:nonzero;stroke:#ffc905;stroke-width:0.79654098;stroke-linecap:butt;stroke-linejoin:round;stroke-dasharray:none"
         id=" polygon3156"
         d="M 8.15026,40.8914 13.3337,25.2967 0,15.4939 16.5163,15.5943 21.6995,0 l 4.9173,15.725 16.4707,0.0169 -13.3674,9.6175 5.0012,15.6789 -13.2041,-9.7647 z"
         transform="translate(10.7667,2.41286)" /></g></g></g><polyline
   transform="matrix(0.83200893,0,0,0.83200893,249.45177,133.58891)"
   class="st0"
   points="184.4,485 120.1,461.2 57.2,485 57.2,78.1 119.8,101.8 184.4,78.1 184.4,485 "
   id="polyline4-9"
   style="fill:#ebbc03"
   inkscape:export-filename="C:\Users\suitedoalex\auf-seleccion-de-futbol-de-uruguay-logo-5.png"
   inkscape:export-xdpi="196.79346"
   inkscape:export-ydpi="196.79346" /><path
   inkscape:connector-curvature="0"
   class="st1"
   d="M 367.76343,279.35687 H 382.906 l -22.21464,-38.85481 h -21.38263 l -22.29784,38.85481 h 15.22577 c 0,0 0.9984,-3.32804 2.41282,-6.98887 h 30.70114 c 1.41441,3.74405 2.41281,6.98887 2.41281,6.98887 m -17.88818,-33.03075 0.1664,-0.2496 0.0831,0.2496 c 0,0 7.4881,10.89932 11.23214,17.30579 h -22.71385 c 3.74403,-6.40647 11.23212,-17.30579 11.23212,-17.30579 z"
   id="path14-4"
   style="fill:#d51c27;stroke-width:0.83200896"
   inkscape:export-filename="C:\Users\suitedoalex\auf-seleccion-de-futbol-de-uruguay-logo-5.png"
   inkscape:export-xdpi="196.79346"
   inkscape:export-ydpi="196.79346" /><path
   inkscape:connector-curvature="0"
   class="st1"
   d="m 366.76503,295.33146 v 30.03551 h -33.61317 v -30.03551 h -15.72495 c 0,0 0,25.29305 0,27.5395 0,4.82564 8.23688,11.23211 14.80975,11.23211 h 11.64812 c 6.40648,0 12.23054,0 12.23054,0 h 11.64811 c 6.57289,0 14.80977,-6.32327 14.80977,-11.23211 0,-2.24645 0,-27.5395 0,-27.5395 h -15.80817"
   id="path16-1"
   style="fill:#d51c27;stroke-width:0.83200896"
   inkscape:export-filename="C:\Users\suitedoalex\auf-seleccion-de-futbol-de-uruguay-logo-5.png"
   inkscape:export-xdpi="196.79346"
   inkscape:export-ydpi="196.79346" /><polyline
   transform="matrix(0.83200893,0,0,0.83200893,249.45177,133.58891)"
   class="st1"
   points="159.1,270.3 159.1,259.8 82.5,259.8 82.5,307 101.4,307 101.4,289.9 159.1,289.9 159.1,279.4   101.4,279.4 101.4,270.3 159.1,270.3 "
   id="polyline18-0"
   style="fill:#d51c27"
   inkscape:export-filename="C:\Users\suitedoalex\auf-seleccion-de-futbol-de-uruguay-logo-5.png"
   inkscape:export-xdpi="196.79346"
   inkscape:export-ydpi="196.79346" /><path
   inkscape:connector-curvature="0"
   class="st0"
   d="m 268.58798,260.05427 c 0,0 5.82406,-2.08002 5.82406,-8.3201 0,-6.24006 -5.74086,-11.56491 -5.74086,-11.56491 h -0.0831 c 0,0 -5.74087,5.40807 -5.74087,11.56491 0,6.24008 5.82407,8.3201 5.82407,8.3201 h -0.0831"
   id="path20-0"
   style="fill:#ebbc03;stroke-width:0.83200896"
   inkscape:export-filename="C:\Users\suitedoalex\auf-seleccion-de-futbol-de-uruguay-logo-5.png"
   inkscape:export-xdpi="196.79346"
   inkscape:export-ydpi="196.79346" /><path
   inkscape:connector-curvature="0"
   class="st0"
   d="m 270.9176,281.76971 c 0,0 5.40806,3.07842 10.15051,-0.99842 4.74246,-4.07684 5.07527,-11.89772 5.07527,-11.89772 l -0.0831,-0.0831 c 0,0 -7.82089,-0.91521 -12.56334,3.16163 -4.65924,4.07684 -2.49602,9.90091 -2.57923,9.81771 v 0"
   id="path22-6"
   style="fill:#ebbc03;stroke-width:0.83200896"
   inkscape:export-filename="C:\Users\suitedoalex\auf-seleccion-de-futbol-de-uruguay-logo-5.png"
   inkscape:export-xdpi="196.79346"
   inkscape:export-ydpi="196.79346" /><path
   inkscape:connector-curvature="0"
   class="st0"
   d="m 266.67436,281.4369 c 0,0 -5.32486,3.24484 -10.15052,-0.58241 -4.90884,-3.91043 -5.49125,-11.73131 -5.49125,-11.73131 l 0.0831,-0.0831 c 0,0 7.8209,-1.16481 12.64656,2.74563 4.90884,3.91044 2.91202,9.7345 2.91202,9.6513 v 0"
   id="path24-2"
   style="fill:#ebbc03;stroke-width:0.83200896"
   inkscape:export-filename="C:\Users\suitedoalex\auf-seleccion-de-futbol-de-uruguay-logo-5.png"
   inkscape:export-xdpi="196.79346"
   inkscape:export-ydpi="196.79346" /><path
   inkscape:connector-curvature="0"
   class="st0"
   d="m 270.83441,307.39557 c 0,0 5.40806,3.07844 10.15051,-0.99839 4.74243,-4.07685 5.07524,-11.89775 5.07524,-11.89775 l -0.0831,-0.0831 c 0,0 -7.82088,-0.9152 -12.56332,3.16165 -4.74246,4.07685 -2.49604,9.90091 -2.57923,9.81769 v 0"
   id="path26-6"
   style="fill:#ebbc03;stroke-width:0.83200896"
   inkscape:export-filename="C:\Users\suitedoalex\auf-seleccion-de-futbol-de-uruguay-logo-5.png"
   inkscape:export-xdpi="196.79346"
   inkscape:export-ydpi="196.79346" /><path
   inkscape:connector-curvature="0"
   class="st0"
   d="m 266.59116,307.14597 c 0,0 -5.32486,3.24485 -10.15051,-0.5824 -4.90886,-3.91044 -5.49126,-11.73132 -5.49126,-11.73132 l 0.0832,-0.0832 c 0,0 7.82088,-1.1648 12.64654,2.74564 4.82566,3.82724 2.82882,9.7345 2.91202,9.6513 v 0"
   id="path28-0"
   style="fill:#ebbc03;stroke-width:0.83200896"
   inkscape:export-filename="C:\Users\suitedoalex\auf-seleccion-de-futbol-de-uruguay-logo-5.png"
   inkscape:export-xdpi="196.79346"
   inkscape:export-ydpi="196.79346" /><path
   inkscape:connector-curvature="0"
   class="st0"
   d="m 270.83441,333.02146 c 0,0 5.40806,3.07843 10.15051,-0.99842 4.74243,-4.07684 5.07524,-11.89773 5.07524,-11.89773 l -0.0831,-0.0831 c 0,0 -7.82088,-0.91521 -12.56332,3.16162 -4.74246,4.07685 -2.49604,9.90091 -2.57923,9.81772 v 0"
   id="path30-8"
   style="fill:#ebbc03;stroke-width:0.83200896"
   inkscape:export-filename="C:\Users\suitedoalex\auf-seleccion-de-futbol-de-uruguay-logo-5.png"
   inkscape:export-xdpi="196.79346"
   inkscape:export-ydpi="196.79346" /><path
   inkscape:connector-curvature="0"
   class="st0"
   d="m 266.59116,332.77185 c 0,0 -5.32486,3.24484 -10.15051,-0.5824 -4.90886,-3.91044 -5.49126,-11.73133 -5.49126,-11.73133 l 0.0832,-0.0831 c 0,0 7.82088,-1.16481 12.64654,2.74563 4.82566,3.82724 2.82882,9.73451 2.91202,9.6513 v 0"
   id="path32-5"
   style="fill:#ebbc03;stroke-width:0.83200896"
   inkscape:export-filename="C:\Users\suitedoalex\auf-seleccion-de-futbol-de-uruguay-logo-5.png"
   inkscape:export-xdpi="196.79346"
   inkscape:export-ydpi="196.79346" /><path
   inkscape:connector-curvature="0"
   class="st0"
   d="m 270.83441,358.64734 c 0,0 5.40806,3.07843 10.15051,-0.99842 4.74243,-4.07685 5.07524,-11.89772 5.07524,-11.89772 l -0.0831,-0.0831 c 0,0 -7.82088,-0.9152 -12.56332,3.16163 -4.74246,4.07685 -2.49604,9.90091 -2.57923,9.81772 v 0"
   id="path34-1"
   style="fill:#ebbc03;stroke-width:0.83200896"
   inkscape:export-filename="C:\Users\suitedoalex\auf-seleccion-de-futbol-de-uruguay-logo-5.png"
   inkscape:export-xdpi="196.79346"
   inkscape:export-ydpi="196.79346" /><path
   inkscape:connector-curvature="0"
   class="st0"
   d="m 266.59116,358.39773 c 0,0 -5.32486,3.24483 -10.15051,-0.58242 -4.90886,-3.91043 -5.49126,-11.73131 -5.49126,-11.73131 l 0.0832,-0.0832 c 0,0 7.82088,-1.16481 12.64654,2.74564 4.82566,3.82724 2.82882,9.73451 2.91202,9.6513 v 0"
   id="path36-9"
   style="fill:#ebbc03;stroke-width:0.83200896"
   inkscape:export-filename="C:\Users\suitedoalex\auf-seleccion-de-futbol-de-uruguay-logo-5.png"
   inkscape:export-xdpi="196.79346"
   inkscape:export-ydpi="196.79346" /><path
   inkscape:connector-curvature="0"
   class="st0"
   d="m 270.83441,384.3564 c 0,0 5.40806,3.07844 10.15051,-0.9984 4.74243,-4.07685 5.07524,-11.89773 5.07524,-11.89773 l -0.0831,-0.0831 c 0,0 -7.82088,-0.9152 -12.56332,3.16163 -4.74246,4.07685 -2.49604,9.90091 -2.57923,9.8177 v 0"
   id="path38-9"
   style="fill:#ebbc03;stroke-width:0.83200896"
   inkscape:export-filename="C:\Users\suitedoalex\auf-seleccion-de-futbol-de-uruguay-logo-5.png"
   inkscape:export-xdpi="196.79346"
   inkscape:export-ydpi="196.79346" /><path
   inkscape:connector-curvature="0"
   class="st0"
   d="m 266.59116,384.10681 c 0,0 -5.32486,3.24483 -10.15051,-0.58242 -4.90886,-3.91043 -5.49126,-11.73132 -5.49126,-11.73132 l 0.0832,-0.0832 c 0,0 7.82088,-1.1648 12.64654,2.74565 4.82566,3.82724 2.82882,9.7345 2.91202,9.6513 v 0"
   id="path40-6"
   style="fill:#ebbc03;stroke-width:0.83200896"
   inkscape:export-filename="C:\Users\suitedoalex\auf-seleccion-de-futbol-de-uruguay-logo-5.png"
   inkscape:export-xdpi="196.79346"
   inkscape:export-ydpi="196.79346" /><rect
   x="267.50638"
   y="258.05746"
   class="st0"
   width="2.1632233"
   height="158.24809"
   id="rect42-7"
   style="fill:#ebbc03;stroke-width:0.83200896"
   inkscape:export-filename="C:\Users\suitedoalex\auf-seleccion-de-futbol-de-uruguay-logo-5.png"
   inkscape:export-xdpi="196.79346"
   inkscape:export-ydpi="196.79346" /><path
   inkscape:connector-curvature="0"
   class="st0"
   d="m 431.41212,260.05427 c 0,0 5.82406,-2.08002 5.82406,-8.3201 0,-6.24006 -5.74086,-11.56491 -5.74086,-11.56491 h -0.0831 c 0,0 -5.74087,5.40807 -5.74087,11.56491 0,6.24008 5.82407,8.3201 5.82407,8.3201 h -0.0831"
   id="path44-5"
   style="fill:#ebbc03;stroke-width:0.83200896"
   inkscape:export-filename="C:\Users\suitedoalex\auf-seleccion-de-futbol-de-uruguay-logo-5.png"
   inkscape:export-xdpi="196.79346"
   inkscape:export-ydpi="196.79346" /><path
   inkscape:connector-curvature="0"
   class="st0"
   d="m 433.82495,281.76971 c 0,0 5.40805,3.07842 10.15051,-0.99842 4.74245,-4.07684 5.07525,-11.89772 5.07525,-11.89772 l -0.0831,-0.0831 c 0,0 -7.82089,-0.91521 -12.56333,3.16163 -4.74245,4.07684 -2.57922,9.90091 -2.57922,9.81771 v 0"
   id="path46-0"
   style="fill:#ebbc03;stroke-width:0.83200896"
   inkscape:export-filename="C:\Users\suitedoalex\auf-seleccion-de-futbol-de-uruguay-logo-5.png"
   inkscape:export-xdpi="196.79346"
   inkscape:export-ydpi="196.79346" /><path
   inkscape:connector-curvature="0"
   class="st0"
   d="m 429.5817,281.4369 c 0,0 -5.32484,3.24484 -10.15051,-0.58241 -4.90885,-3.91043 -5.49124,-11.73131 -5.49124,-11.73131 l 0.0831,-0.0831 c 0,0 7.82088,-1.16481 12.64654,2.74563 4.82564,3.91044 2.82883,9.7345 2.91202,9.6513 v 0"
   id="path48-7"
   style="fill:#ebbc03;stroke-width:0.83200896"
   inkscape:export-filename="C:\Users\suitedoalex\auf-seleccion-de-futbol-de-uruguay-logo-5.png"
   inkscape:export-xdpi="196.79346"
   inkscape:export-ydpi="196.79346" /><path
   inkscape:connector-curvature="0"
   class="st0"
   d="m 433.65855,307.39557 c 0,0 5.40806,3.07844 10.1505,-0.99839 4.74245,-4.07685 5.07526,-11.89775 5.07526,-11.89775 l -0.0831,-0.0831 c 0,0 -7.82088,-0.9152 -12.56333,3.16165 -4.65927,4.07685 -2.49604,9.90091 -2.57924,9.81769 v 0"
   id="path50-0"
   style="fill:#ebbc03;stroke-width:0.83200896"
   inkscape:export-filename="C:\Users\suitedoalex\auf-seleccion-de-futbol-de-uruguay-logo-5.png"
   inkscape:export-xdpi="196.79346"
   inkscape:export-ydpi="196.79346" /><path
   inkscape:connector-curvature="0"
   class="st0"
   d="m 429.41531,307.14597 c 0,0 -5.32487,3.24485 -10.15052,-0.5824 -4.90884,-3.91044 -5.49126,-11.73132 -5.49126,-11.73132 l 0.0832,-0.0832 c 0,0 7.8209,-1.1648 12.64654,2.74564 4.82566,3.82724 2.82882,9.7345 2.91204,9.6513 v 0"
   id="path52-6"
   style="fill:#ebbc03;stroke-width:0.83200896"
   inkscape:export-filename="C:\Users\suitedoalex\auf-seleccion-de-futbol-de-uruguay-logo-5.png"
   inkscape:export-xdpi="196.79346"
   inkscape:export-ydpi="196.79346" /><path
   inkscape:connector-curvature="0"
   class="st0"
   d="m 433.65855,333.02146 c 0,0 5.40806,3.07843 10.1505,-0.99842 4.74245,-4.07684 5.07526,-11.89773 5.07526,-11.89773 l -0.0831,-0.0831 c 0,0 -7.82088,-0.91521 -12.56333,3.16162 -4.65927,4.07685 -2.49604,9.90091 -2.57924,9.81772 v 0"
   id="path54-0"
   style="fill:#ebbc03;stroke-width:0.83200896"
   inkscape:export-filename="C:\Users\suitedoalex\auf-seleccion-de-futbol-de-uruguay-logo-5.png"
   inkscape:export-xdpi="196.79346"
   inkscape:export-ydpi="196.79346" /><path
   inkscape:connector-curvature="0"
   class="st0"
   d="m 429.41531,332.77185 c 0,0 -5.32487,3.24484 -10.15052,-0.5824 -4.90884,-3.91044 -5.49126,-11.73133 -5.49126,-11.73133 l 0.0832,-0.0831 c 0,0 7.8209,-1.16481 12.64654,2.74563 4.82566,3.82724 2.82882,9.73451 2.91204,9.6513 v 0"
   id="path56-5"
   style="fill:#ebbc03;stroke-width:0.83200896"
   inkscape:export-filename="C:\Users\suitedoalex\auf-seleccion-de-futbol-de-uruguay-logo-5.png"
   inkscape:export-xdpi="196.79346"
   inkscape:export-ydpi="196.79346" /><path
   inkscape:connector-curvature="0"
   class="st0"
   d="m 433.65855,358.64734 c 0,0 5.40806,3.07843 10.1505,-0.99842 4.74245,-4.07685 5.07526,-11.89772 5.07526,-11.89772 l -0.0831,-0.0831 c 0,0 -7.82088,-0.9152 -12.56333,3.16163 -4.65927,4.07685 -2.49604,9.90091 -2.57924,9.81772 v 0"
   id="path58-2"
   style="fill:#ebbc03;stroke-width:0.83200896"
   inkscape:export-filename="C:\Users\suitedoalex\auf-seleccion-de-futbol-de-uruguay-logo-5.png"
   inkscape:export-xdpi="196.79346"
   inkscape:export-ydpi="196.79346" /><path
   inkscape:connector-curvature="0"
   class="st0"
   d="m 429.41531,358.39773 c 0,0 -5.32487,3.24483 -10.15052,-0.58242 -4.90884,-3.91043 -5.49126,-11.73131 -5.49126,-11.73131 l 0.0832,-0.0832 c 0,0 7.8209,-1.16481 12.64654,2.74564 4.82566,3.82724 2.82882,9.73451 2.91204,9.6513 v 0"
   id="path60-8"
   style="fill:#ebbc03;stroke-width:0.83200896"
   inkscape:export-filename="C:\Users\suitedoalex\auf-seleccion-de-futbol-de-uruguay-logo-5.png"
   inkscape:export-xdpi="196.79346"
   inkscape:export-ydpi="196.79346" /><path
   inkscape:connector-curvature="0"
   class="st0"
   d="m 433.65855,384.3564 c 0,0 5.40806,3.07844 10.1505,-0.9984 4.74245,-4.07685 5.07526,-11.89773 5.07526,-11.89773 l -0.0831,-0.0831 c 0,0 -7.82088,-0.9152 -12.56333,3.16163 -4.65927,4.07685 -2.49604,9.90091 -2.57924,9.8177 v 0"
   id="path62-1"
   style="fill:#ebbc03;stroke-width:0.83200896"
   inkscape:export-filename="C:\Users\suitedoalex\auf-seleccion-de-futbol-de-uruguay-logo-5.png"
   inkscape:export-xdpi="196.79346"
   inkscape:export-ydpi="196.79346" /><path
   inkscape:connector-curvature="0"
   class="st0"
   d="m 429.41531,384.10681 c 0,0 -5.32487,3.24483 -10.15052,-0.58242 -4.90884,-3.91043 -5.49126,-11.73132 -5.49126,-11.73132 l 0.0832,-0.0832 c 0,0 7.8209,-1.1648 12.64654,2.74565 4.82566,3.82724 2.82882,9.7345 2.91204,9.6513 v 0"
   id="path64-5"
   style="fill:#ebbc03;stroke-width:0.83200896"
   inkscape:export-filename="C:\Users\suitedoalex\auf-seleccion-de-futbol-de-uruguay-logo-5.png"
   inkscape:export-xdpi="196.79346"
   inkscape:export-ydpi="196.79346" /><rect
   x="430.33051"
   y="258.05746"
   class="st0"
   width="2.1632233"
   height="158.24809"
   id="rect66-4"
   style="fill:#ebbc03;stroke-width:0.83200896"
   inkscape:export-filename="C:\Users\suitedoalex\auf-seleccion-de-futbol-de-uruguay-logo-5.png"
   inkscape:export-xdpi="196.79346"
   inkscape:export-ydpi="196.79346" /><rect
   x="250.94931"
   y="417.22076"
   class="st2"
   width="198.10135"
   height="72.218384"
   id="rect68-3"
   style="fill:#ffffff;stroke-width:0.83200896"
   inkscape:export-filename="C:\Users\suitedoalex\auf-seleccion-de-futbol-de-uruguay-logo-5.png"
   inkscape:export-xdpi="196.79346"
   inkscape:export-ydpi="196.79346" /><rect
   x="250.94931"
   y="425.2912"
   class="st3"
   width="198.10135"
   height="7.9040852"
   id="rect70-1"
   style="fill:#43b5e5;stroke-width:0.83200896"
   inkscape:export-filename="C:\Users\suitedoalex\auf-seleccion-de-futbol-de-uruguay-logo-5.png"
   inkscape:export-xdpi="196.79346"
   inkscape:export-ydpi="196.79346" /><rect
   x="250.94931"
   y="441.43225"
   class="st3"
   width="198.10135"
   height="7.9040852"
   id="rect72-2"
   style="fill:#43b5e5;stroke-width:0.83200896"
   inkscape:export-filename="C:\Users\suitedoalex\auf-seleccion-de-futbol-de-uruguay-logo-5.png"
   inkscape:export-xdpi="196.79346"
   inkscape:export-ydpi="196.79346" /><rect
   x="250.94931"
   y="457.5733"
   class="st3"
   width="198.10135"
   height="7.9040852"
   id="rect74-7"
   style="fill:#43b5e5;stroke-width:0.83200896"
   inkscape:export-filename="C:\Users\suitedoalex\auf-seleccion-de-futbol-de-uruguay-logo-5.png"
   inkscape:export-xdpi="196.79346"
   inkscape:export-ydpi="196.79346" /><rect
   x="250.94931"
   y="473.63098"
   class="st3"
   width="198.10135"
   height="7.9040852"
   id="rect76-6"
   style="fill:#43b5e5;stroke-width:0.83200896"
   inkscape:export-filename="C:\Users\suitedoalex\auf-seleccion-de-futbol-de-uruguay-logo-5.png"
   inkscape:export-xdpi="196.79346"
   inkscape:export-ydpi="196.79346" /><path
   inkscape:connector-curvature="0"
   class="st2"
   d="m 304.19796,453.66276 h 0.416 -0.416 c 0,-25.04347 20.30102,-45.26129 45.34449,-45.34449 25.04346,0.0831 45.26129,20.30102 45.34448,45.34449 0,25.04347 -20.30102,45.26129 -45.34448,45.34447 -25.04347,-0.0832 -45.34449,-20.301 -45.34449,-45.34447"
   id="path78-8"
   style="fill:#ffffff;stroke-width:0.83200896"
   inkscape:export-filename="C:\Users\suitedoalex\auf-seleccion-de-futbol-de-uruguay-logo-5.png"
   inkscape:export-xdpi="196.79346"
   inkscape:export-ydpi="196.79346" /><path
   inkscape:connector-curvature="0"
   class="st4"
   d="m 349.54245,501.08726 v 0 c -25.45947,-0.0831 -46.2597,-20.21782 -47.42451,-45.34449 h -0.0832 v -2.08001 -2.16323 h 0.0832 c 1.16481,-25.12666 21.96504,-45.26129 47.42451,-45.34449 26.12508,0 47.4245,21.29942 47.4245,47.4245 -0.0831,26.2083 -21.29942,47.50772 -47.4245,47.50772 m -43.26448,-47.4245 c 0,23.79544 19.38582,43.18126 43.18127,43.18126 23.79546,-0.0831 43.18127,-19.38582 43.18127,-43.18126 0,-23.79546 -19.38581,-43.18128 -43.18127,-43.18128 -23.71225,0 -43.09806,19.38582 -43.18127,43.18128 z"
   id="path80-1"
   style="fill:#293634;stroke-width:0.83200896"
   inkscape:export-filename="C:\Users\suitedoalex\auf-seleccion-de-futbol-de-uruguay-logo-5.png"
   inkscape:export-xdpi="196.79346"
   inkscape:export-ydpi="196.79346" /><path
   inkscape:connector-curvature="0"
   class="st4"
   d="m 349.54245,408.31827 c -25.04347,0 -45.34449,20.30102 -45.34449,45.34449 0,25.04347 20.30102,45.34447 45.34449,45.34447 25.04346,0 45.34448,-20.301 45.34448,-45.34447 -0.0831,-25.04347 -20.38422,-45.34449 -45.34448,-45.34449 m 8.90249,79.95606 -13.31215,-10.23372 1.58083,-10.1505 16.72337,-8.4033 10.89933,5.40806 -1.58083,15.80817 c -4.07683,3.57764 -8.9857,6.24007 -14.31055,7.57129 z m -40.68524,-17.30579 1.16483,-13.56175 12.39692,-2.49602 13.81134,12.97934 -1.58082,10.1505 -15.14256,4.82566 c -4.32643,-3.16165 -7.98728,-7.15528 -10.64971,-11.89773 z m 31.53314,-53.58138 c 5.99046,0 11.64813,1.49761 16.64018,4.07684 l 3.91045,10.23371 -8.8193,7.40489 -19.63541,-3.07843 -4.32644,-8.56971 8.07047,-9.81769 c 1.33122,-0.16642 2.74564,-0.24961 4.16005,-0.24961 z m 35.94279,38.68842 -9.90091,7.65448 -10.98251,-5.49127 -2.41284,-17.88819 8.8193,-7.32167 12.72974,8.56969 c 1.248,3.66084 1.99681,7.65449 1.99681,11.81453 -0.16639,0.9152 -0.16639,1.83042 -0.24959,2.66243 z m -66.56071,-0.16641 -5.07527,-7.73768 c 0.83202,-5.49126 2.82884,-10.48331 5.82407,-14.89297 l 16.39057,-4.90884 3.91044,7.82088 -8.81928,17.22259 z m -0.4992,-23.62904 c -2.99524,4.32643 -4.99207,9.31849 -5.99048,14.64334 l -6.15686,1.16482 c 1.08161,-8.40329 4.49284,-16.05776 9.6513,-22.29784 z m 68.64073,23.79545 c 0.0831,-0.91522 0.0831,-1.74723 0.0831,-2.66243 0,-3.99364 -0.66561,-7.82088 -1.74721,-11.39853 l 5.57446,-3.07843 c 1.66402,4.57605 2.57923,9.56811 2.57923,14.72657 0,2.91202 -0.3328,5.74086 -0.83201,8.48649 z m -15.39217,-40.26924 -5.57445,3.91044 c -4.99207,-2.49602 -10.64972,-3.82724 -16.55699,-3.82724 -1.33122,0 -2.66243,0.0832 -3.99364,0.16641 l -5.32486,-5.07525 c 3.07843,-0.66561 6.24007,-1.08162 9.56811,-1.08162 7.98728,0 15.47536,2.16322 21.88183,5.90726 z m -60.65346,58.24063 6.57287,-0.832 c 2.49604,4.07684 5.82407,7.65447 9.6513,10.4833 l 0.24961,7.65449 c -6.98887,-4.16004 -12.72973,-10.15052 -16.47378,-17.30579 z m 45.26129,22.88024 3.07844,-7.23848 c 5.32486,-1.4144 10.1505,-4.07684 14.31055,-7.48807 l 7.32167,1.99682 c -6.40645,6.65607 -15.05935,11.31531 -24.71066,12.72973 z"
   id="path82-2"
   style="fill:#293634;stroke-width:0.83200896"
   inkscape:export-filename="C:\Users\suitedoalex\auf-seleccion-de-futbol-de-uruguay-logo-5.png"
   inkscape:export-xdpi="196.79346"
   inkscape:export-ydpi="196.79346" /></svg>